<?xml version="1.0" encoding="UTF-8" standalone="no"?>
<svg
   viewBox="42.72 743.58 434.99999 435.00001"
   version="1.1"
   id="svg1"
   width="435"
   height="435"
   xmlns="http://www.w3.org/2000/svg"
   xmlns:svg="http://www.w3.org/2000/svg">
  <defs
     id="defs1" />
  <path
     d="m 398.3944,1043.1665 1.86298,-0.01 h 2.03829 l 2.1512,-0.01 5.8402,-0.013 3.65105,-0.01 11.42914,-0.015 13.18131,-0.027 10.1967,-0.018 6.08628,-0.014 5.72732,-0.01 3.09386,-0.015 c 4.13382,0.02 6.91138,0.2414 10.15768,3.0567 2.72346,3.3552 3.31184,6.6578 3.32433,10.9374 l 0.009,1.8071 v 1.9589 l 0.007,2.0819 0.0125,5.6377 0.006,3.5295 0.0141,11.0655 0.0265,12.7326 0.0172,9.869 0.013,5.8818 0.005,6.5718 0.0146,1.9424 c -0.0218,4.5742 -0.32568,10.1507 -3.32122,13.8121 -4.16295,2.7955 -9.41841,2.2263 -14.19265,2.2241 l -2.07524,0.01 -5.60402,0.01 -3.50642,0.01 -12.24695,0.01 c -3.79879,-5e-4 -7.59706,0.01 -11.39585,0.014 l -9.806,0.01 -5.84749,0.01 h -6.5186 l -1.94518,0.01 c -4.81638,-0.018 -8.12666,-0.3365 -11.66013,-3.8955 -1.6502,-2.5122 -1.62522,-5.671 -1.64084,-8.6167 l -0.0135,-1.9375 -0.007,-2.1033 -0.013,-2.2327 -0.0292,-7.3063 -0.008,-2.5218 -0.027,-10.492 -0.0552,-15.006 -0.0333,-10.5702 -0.025,-6.3052 -0.013,-5.9323 -0.0255,-3.2 c 0.0302,-4.4497 0.67788,-7.2511 3.71815,-10.456 2.41444,-2.2353 4.28054,-2.4553 7.42539,-2.4644 z"
     id="path5"
     style="stroke-width:0.528338" />
  <path
     d="m 66.693488,783.76325 2.41018,-0.0117 7.84226,-0.021 5.47883,-0.0132 11.46572,-0.0156 14.662152,-0.0452 11.3091,-0.0195 5.4048,-0.0187 7.56874,-0.007 2.23408,-0.0218 c 5.73909,0.0358 10.83765,0.79482 15.34711,4.53672 5.16557,6.41781 4.05515,14.71047 4.03333,22.57065 v 3.38813 l -0.0101,9.15138 -0.006,9.58152 -0.0164,18.12276 -0.0172,20.64125 -0.039,42.43968 19.48097,-0.77924 21.13685,-47.72837 0.63742,-1.46029 2.60499,-5.96897 16.14115,-36.79254 0.7808,-1.77277 4.23438,-9.56203 1.81485,-4.10036 c 7.60693,-17.02091 7.60693,-17.02091 14.98788,-20.4106 5.64558,-1.50938 11.29974,-1.78757 17.11208,-1.77277 l 2.44136,-0.0117 7.90226,-0.009 5.53181,-0.0101 11.55378,-0.002 14.79073,-0.0265 11.40727,-0.009 5.45389,-0.0125 7.61862,0.005 2.26213,-0.0179 c 5.30272,0.0413 9.12099,0.76833 13.27745,4.3014 1.86394,3.57281 1.01379,7.13004 -0.10052,10.92025 -0.63274,1.74082 -1.32315,3.44502 -2.04239,5.15155 l -0.81976,1.99719 c -2.86292,6.88847 -5.94091,13.68343 -9.01267,20.47995 l -9.06177,20.52749 -0.63274,1.46497 -3.16916,7.3451 -6.27911,14.51878 -0.62261,1.43691 -10.38414,23.84003 -0.69897,1.59744 -7.43472,16.86039 2.432,0.17689 c 17.57339,1.52263 32.26828,8.55448 43.81893,22.09999 9.76854,12.28709 13.88838,27.10039 13.85487,42.57759 l 0.005,1.8336 0.004,6.018 0.008,4.3412 0.009,11.74618 0.004,7.3475 0.0101,25.658 0.0203,23.8797 0.014,20.5384 0.0101,12.2512 0.002,11.5226 0.005,4.2157 c 0.06,18.9815 0.06,18.9815 -4.8718,24.758 -5.03934,4.1751 -12.91744,3.233 -19.11706,3.2299 l -2.39071,0.01 -7.76511,0.01 -5.42818,0.01 -11.35195,0.01 -14.52345,0.024 -11.20078,0.01 -5.35415,0.01 -7.49004,8e-4 -2.21694,0.013 c -5.1305,-0.024 -9.81685,-0.3764 -14.31539,-3.0757 -5.83572,-6.1692 -4.93726,-15.3377 -4.94427,-23.2431 l -0.0117,-2.9167 -0.0203,-6.248 -0.0413,-9.8955 -0.11611,-28.129 -0.0686,-15.5606 -0.0304,-8.2178 -0.0429,-9.1693 0.007,-2.7204 c -0.0631,-6.1131 -0.92106,-11.1033 -3.98425,-16.4349 -4.01386,-3.5798 -9.83867,-3.3998 -14.96684,-3.4138 l -2.00654,-0.023 -6.50119,-0.051 -4.53283,-0.046 -11.88261,-0.1 -12.14522,-0.1098 -23.79639,-0.2026 0.005,1.7548 0.0764,42.3423 0.0366,20.4768 0.0288,17.8547 0.0179,9.4475 0.0117,8.9067 0.009,3.2549 c 0.0896,17.0014 0.0896,17.0014 -4.86089,22.1997 -5.34168,2.9058 -10.2992,3.5658 -16.29077,3.4957 l -2.45694,0.01 c -2.65642,0.01 -5.31207,-0.011 -7.96849,-0.028 h -5.57701 l -11.65819,-0.037 -14.908402,-0.031 -11.50546,-0.02 -5.49597,-0.01 -7.69108,-0.034 h -2.27148 c -5.40091,-0.051 -11.28884,-0.1302 -15.77024,-3.4918 -4.78842,-5.1305 -5.25908,-11.161 -5.26298,-17.8913 l -0.004,-1.6528 v -5.4812 l -0.005,-3.9702 -0.004,-10.9093 -0.008,-11.7658 -0.009,-23.0506 -0.005,-18.7353 -0.0101,-53.10818 v -2.8925 -2.8957 l -0.0179,-46.46911 -0.0156,-47.70577 -0.0101,-26.78633 -0.003,-22.8052 -0.004,-11.6356 0.002,-10.65453 -0.005,-3.85099 c -0.0522,-16.91104 -0.0522,-16.91104 4.8757,-22.79741 5.5061,-4.63024 12.25119,-4.01386 19.08823,-4.02165 z"
     id="path2"
     style="stroke-width:0.779239" />
</svg>
