<svg xmlns="http://www.w3.org/2000/svg" viewBox="42.72 743.58 1923.68 452.93" xmlns:v="https://vecta.io/nano"><path d="M1355.555 743.839l2.147-.015 6.958-.027 2.428-.009 12.734-.029 13.023-.058 10.129-.025 4.794-.024c28.502-.22 28.502-.22 38.231 9.348l2.383 2.227c5.142 4.953 9.689 10.215 14.137 15.789 2.87 3.454 5.901 6.718 8.98 9.984 4.647 4.935 9.019 9.995 13.258 15.289 2.481 3 5.091 5.862 7.742 8.711 3.452 3.709 6.765 7.485 9.938 11.438 4.364 5.422 9.047 10.491 13.789 15.578 4.304 4.618 8.417 9.392 12.512 14.195l3.074 3.602 1.568 1.837a417.91 417.91 0 0 0 9.807 11.038c3.171 3.453 6.193 6.968 9.125 10.625 4.163 5.167 8.614 10.011 13.171 14.829l1.598 1.694 1.413 1.486c1.93 2.152 3.705 4.417 5.505 6.678l.007-2.096.228-50.582.111-24.462.102-21.33.049-11.285.057-10.642.009-5.727c.09-8.276.492-16.25 5.874-22.875 7.318-5.712 15.843-5.15 24.783-5.161l3.004-.015 9.772-.027 3.387-.009 17.732-.029 18.271-.058 14.096-.025 6.735-.024 9.432-.009 2.782-.028c6.232.04 13.246.503 18.16 4.766 6.028 6.974 6.531 13.895 6.536 22.889l.005 2.124v7.028l.007 5.097.005 13.993.01 15.096.012 29.57.006 24.034.013 68.136v3.71 3.715l.023 59.615.02 61.208.013 34.365.004 29.255.005 14.926-.002 13.668.006 4.94c.071 22.561.071 22.561-8.443 31.562-6.279 3.767-14.808 2.836-21.947 2.833l-2.94.01-9.546.013-6.683.01-13.978.007-17.857.031-13.793.013-6.582.013-9.223.001-2.71.017c-14.91-.074-14.91-.074-19.503-3.872-6.687-7.332-7.239-15.723-7.081-25.32l.047-4.725.029-2.502.051-16.035.105-14.031.055-13.64.061-5.159c.209-9.357-.19-16.073-6.607-23.282-1.861-1.946-3.781-3.814-5.71-5.694l-4.625-5.625-2.203-2.703-4.344-5.344-12.203-14.641c-4.38-5.135-8.564-10.399-12.704-15.729-3.195-4.092-6.548-7.99-10.038-11.834-2.688-3.034-5.174-6.216-7.687-9.395-2.493-3.101-5.054-6.138-7.633-9.168l-12.031-14.461-11.659-14.177-1.735-2.104-1.54-1.867L1469 968l-.01 3.186-.277 76.821-.134 37.15-.121 32.387-.061 17.142-.064 16.151-.017 5.912c-.033 26.782-.033 26.782-5.316 34.251-7.626 5.533-16.036 5.15-25.145 5.145l-2.979.01-9.689.013-6.769.01-14.162.007a6322.25 6322.25 0 0 0-18.117.031l-13.97.013-6.679.013-9.347.001-2.765.017c-6.859-.034-12.783-.594-18.692-4.385-6.198-6.63-6.811-15.229-6.816-24.004l-.005-2.115v-7.014l-.007-5.08-.005-13.96-.01-15.056-.012-29.497-.006-23.977-.013-67.973v-3.702-3.706l-.023-59.467-.02-61.055-.013-34.28-.004-29.187-.005-14.89.002-13.638-.006-4.926c-.072-22.683-.072-22.683 6.623-29.973 5.886-4.956 13.846-4.497 21.188-4.536zm-1282.059 0l3.093-.015 10.064-.027 7.031-.017 14.714-.02 18.816-.058 14.513-.025 6.936-.024 9.713-.009 2.867-.028c7.365.046 13.908 1.02 19.695 5.822 6.629 8.236 5.204 18.878 5.176 28.965v4.348l-.013 11.744-.008 12.296-.021 23.257-.022 26.489L186 911l25-1 27.125-61.25.818-1.874 3.343-7.66L263 792l1.002-2.275 5.434-12.271 2.329-5.262c9.762-21.843 9.762-21.843 19.234-26.193 7.245-1.937 14.501-2.294 21.96-2.275l3.133-.015 10.141-.011 7.099-.013 14.827-.002 18.981-.034 14.639-.012 6.999-.016 9.777.006 2.903-.023c6.805.053 11.705.986 17.039 5.52 2.392 4.585 1.301 9.15-.129 14.014-.812 2.234-1.698 4.421-2.621 6.611l-1.052 2.563c-3.674 8.84-7.624 17.56-11.566 26.282L391.5 824.937l-.812 1.88-4.067 9.426-8.058 18.632-.799 1.844-13.326 30.594-.897 2.05L354 911l3.121.227c22.552 1.954 41.41 10.978 56.233 28.361 12.536 15.768 17.823 34.778 17.78 54.64l.007 2.353.005 7.723.01 5.571.012 15.074.005 9.429.013 32.927.026 30.645.018 26.357.013 15.722.002 14.787.007 5.41c.077 24.359.077 24.359-6.252 31.772-6.467 5.358-16.577 4.149-24.533 4.145l-3.068.01-9.965.013-6.966.01-14.568.007-18.638.031-14.374.013-6.871.013-9.612.001-2.845.017c-6.584-.031-12.598-.483-18.371-3.947-7.489-7.917-6.336-19.683-6.345-29.828l-.015-3.743-.026-8.018-.053-12.699-.149-36.098-.088-19.969-.039-10.546-.055-11.767.009-3.491c-.081-7.845-1.182-14.249-5.113-21.091-5.151-4.594-12.626-4.363-19.207-4.381l-2.575-.03-8.343-.065-5.817-.059-15.249-.128-15.586-.141L186 1030l.006 2.252.098 54.338.047 26.278.037 22.913.023 12.124.015 11.43.012 4.177c.115 21.818.115 21.818-6.238 28.489-6.855 3.729-13.217 4.576-20.906 4.486l-3.153.012c-3.409.007-6.817-.014-10.226-.036l-7.157-.003-14.961-.047-19.132-.04-14.765-.026-7.053-.012-9.87-.043-2.915.003c-6.931-.065-14.487-.167-20.238-4.481-6.145-6.584-6.749-14.323-6.754-22.96l-.005-2.121v-7.034l-.007-5.095-.005-14-.01-15.099-.012-29.581-.006-24.043-.013-68.154v-3.712-3.716l-.023-59.634-.02-61.221-.013-34.375-.004-29.266-.005-14.932.002-13.673-.006-4.942C42.676 756.554 42.676 756.554 49 749c7.066-5.942 15.722-5.151 24.496-5.161zm846.789.032l3.097-.005 10.111.002 7.046-.003 14.763.005 18.891-.004h14.552l6.963-.002 9.75.007 2.888-.006c16.49.052 16.49.052 22.656 6.136 3.546 5.556 4.126 11.177 4.123 17.658l.006 3.361-.009 3.661.003 3.913-.007 10.734-.002 11.583-.008 20.061-.012 29.005-.018 47.059-.021 45.712-.001 2.846-.004 14.137L1035 1077h86l-.07-22.652-.027-14.232-.053-22.575-.039-18.207-.022-6.936-.016-9.737-.022-2.877c.026-8.406.691-16.113 6.249-22.783 6.111-4.544 12.599-4.149 19.896-4.145l3.008-.01 9.835-.013 6.849-.01 14.357-.007 18.369-.031 14.148-.013 6.771-.013 9.484-.001 2.808-.017c6.896.033 12.846.573 18.789 4.385 5.427 5.806 6.133 12.188 6.068 19.787l.014 2.612-.007 8.61.016 6.196-.001 16.791.004 17.592-.016 29.544.005 34.127.008 29.328.005 17.504-.015 16.461.004 6.031-.017 8.253.02 2.392c-.072 6.912-1.36 13.188-5.839 18.584-7.808 6.285-17.123 5.208-26.713 5.196l-4.031.007-11.045.005-11.925.01-23.351.012-18.984.006-53.844.013h-2.931-2.934l-47.081.023-48.363.02-27.144.013-23.11.004a3874.45 3874.45 0 0 0-11.785.005c-3.601.008-7.201.006-10.802-.002a1094.44 1094.44 0 0 0-5.73.013c-17.363-.069-17.363-.069-23.228-4.45-6.054-6.644-6.686-14.321-6.691-22.957l-.005-2.12v-7.031l-.007-5.092-.005-13.994-.01-15.092-.012-29.57-.006-24.035-.013-68.139v-3.711-3.716l-.023-59.613-.02-61.204-.013-34.364-.004-29.259-.005-14.926.002-13.672-.006-4.938c-.072-22.715-.072-22.715 6.623-30.005 6.213-5.232 14.242-4.521 21.917-4.504zm-396.372 0l2.935-.01 3.201.005 3.419-.007 11.367-.005 8.141-.01 19.834-.012 16.128-.006 45.745-.013h2.491 2.494l39.99-.023 41.081-.02 23.056-.013 19.635-.004 10.011-.005 10.873.005 3.167-.016c7.347.034 15.063.131 21.455 4.075 5.936 6.295 6.211 12.336 6.24 20.675l.02 2.554.041 8.345.012 2.89.045 15.149.085 15.591.038 12.037.035 5.744c.197 21.565.197 21.565-6.516 29.702-18.996 14.707-71.137 4.5-76.937 4.5v211h64c11.633 2.327 11.633 2.327 15 6 4.084 6.564 4.15 13.53 4.145 21.072l.01 2.348.013 7.631.01 5.346.007 11.189.031 14.272.013 11.039.013 5.259c.098 24.417.098 24.417-6.242 31.844-4.667 3.47-9.206 4.124-14.913 4.129l-2.935.01-3.201-.005-3.419.007-11.367.005-8.141.01-19.834.012-16.128.006-45.745.013h-2.491-2.494l-39.99.023-41.081.02-23.056.013-19.635.004c-3.337-.003-6.674-.002-10.011.005a2554.25 2554.25 0 0 1-10.873-.005l-3.167.016c-17.647-.083-17.647-.083-23.517-5.263-6.877-9.918-5.163-23.087-5.168-34.625l-.01-5.143-.007-10.742-.031-13.708-.013-10.609-.013-5.052c-.097-23.236-.097-23.236 6.242-31.122 24.78-9.011 52.633-4 79-4V865h-70c-10-5-10-5-13.187-11.375-1.787-5.774-1.959-11.636-1.942-17.636l-.005-2.329.002-7.562-.003-5.293.005-11.073-.004-14.145v-10.925l-.002-5.213.007-7.307-.006-2.146c.035-8.383.501-15.438 6.136-21.995 5.04-3.255 9.992-4.124 15.913-4.129zm1290.874 278.989l3.581-.017 3.918-.003 4.135-.015 11.226-.024 7.018-.012 21.969-.027 25.337-.051 19.6-.033 11.699-.025 11.009-.01 5.947-.027c7.946.037 13.285.45 19.525 5.697 5.235 6.253 6.366 12.408 6.39 20.384l.017 3.368.003 3.651.015 3.88.024 10.507.012 6.578.027 20.623.051 23.73.033 18.393.025 10.962.009 12.248.028 3.62c-.042 8.525-.626 18.918-6.384 25.742-8.002 5.21-18.104 4.149-27.281 4.145l-3.989.01-10.772.012-6.74.005-23.541.013c-7.302-.001-14.603.01-21.905.026l-18.849.018-11.24.013-12.53.001-3.739.017c-9.258-.034-15.621-.627-22.413-7.26-3.172-4.682-3.124-10.569-3.154-16.059l-.026-3.611-.013-3.92-.025-4.161-.056-13.617-.016-4.7-.052-19.554-.106-27.967-.064-19.7-.048-11.751-.025-11.056-.049-5.964c.058-8.293 1.303-13.514 7.147-19.487 4.641-4.166 8.228-4.576 14.273-4.593z"/></svg>
