<svg version="1.1" xmlns="http://www.w3.org/2000/svg" viewBox="42.72 743.58 1923.68 452.93">
<!-- <path d="M0 0 C660 0 1320 0 2000 0 C2000 660 2000 1320 2000 2000 C1340 2000 680 2000 0 2000 C0 1340 0 680 0 0 Z " fill="#FEFEFE" transform="translate(0,0)"/> -->
<path d="M0 0 C0.70859161 -0.0049649 1.41718323 -0.00992981 2.14724731 -0.01504517 C4.46658338 -0.02951914 6.78585099 -0.03644543 9.10522461 -0.04199219 C9.90660795 -0.04481956 10.70799129 -0.04764694 11.53365898 -0.05056 C15.77846473 -0.06549588 20.02323701 -0.07475952 24.26806641 -0.07910156 C28.60926218 -0.08456448 32.95014091 -0.10856238 37.29123783 -0.13707352 C40.66742287 -0.15588069 44.04353443 -0.16091509 47.41976738 -0.16243744 C49.01784426 -0.16542613 50.61592106 -0.17332308 52.21394539 -0.18662262 C80.71563268 -0.40681846 80.71563268 -0.40681846 90.44506836 9.16113281 C91.62456055 10.26328125 91.62456055 10.26328125 92.82788086 11.38769531 C97.96948868 16.34062028 102.51648758 21.60284044 106.96459961 27.17675781 C109.83508385 30.6303798 112.86583455 33.89440571 115.94506836 37.16113281 C120.59198803 42.0960212 124.96435374 47.15591785 129.20288086 52.45019531 C131.68413386 55.45017717 134.29371143 58.31266933 136.94506836 61.16113281 C140.3967089 64.86972816 143.7102913 68.64619358 146.88256836 72.59863281 C151.24647294 78.02021625 155.92928366 83.08955398 160.67163086 88.17675781 C164.9761235 92.79467042 169.08819241 97.56874888 173.18334961 102.37207031 C174.20789928 103.57275322 175.23264482 104.77326902 176.25756836 105.97363281 C176.77488525 106.57981445 177.29220215 107.18599609 177.82519531 107.81054688 C181.03009065 111.55184102 184.29716114 115.22228664 187.63256836 118.84863281 C190.80337577 122.30128978 193.82541867 125.81644248 196.75756836 129.47363281 C200.92095743 134.64069604 205.37172254 139.48502014 209.92871094 144.30297852 C210.4561792 144.86202881 210.98364746 145.4210791 211.52709961 145.99707031 C212.226698 146.73256104 212.226698 146.73256104 212.94042969 147.48291016 C214.8702127 149.63532431 216.64534088 151.89951817 218.44506836 154.16113281 C218.44865089 153.12359832 218.44865089 153.12359832 218.45230579 152.06510353 C218.51154315 135.20418332 218.58714882 118.34342304 218.68078327 101.48266029 C218.72567371 93.32878541 218.7651038 85.17495354 218.79150391 77.02099609 C218.81453883 69.91074875 218.84799782 62.80063831 218.89376992 55.69049966 C218.91762839 51.92867236 218.9364053 48.16698002 218.94268227 44.40507889 C218.94876677 40.85749684 218.9688864 37.3102598 218.99934387 33.76280594 C219.0122024 31.8539355 219.0105634 29.94498424 219.00834656 28.03607178 C219.09795136 19.75982643 219.49997165 11.78586722 224.88256836 5.16113281 C232.20095167 -0.55077611 240.7260038 0.01085944 249.66552734 0 C250.65685669 -0.0049649 251.64818604 -0.00992981 252.66955566 -0.01504517 C255.92676503 -0.02956947 259.18392577 -0.03645111 262.44116211 -0.04199219 C263.55894609 -0.04481956 264.67673008 -0.04764694 265.82838631 -0.05056 C271.73910888 -0.06551029 277.64980728 -0.07476707 283.56054688 -0.07910156 C289.65105759 -0.08459199 295.7413454 -0.10864417 301.83178616 -0.13707352 C306.53050885 -0.15573165 311.22917805 -0.16090711 315.92793465 -0.16243744 C318.17291551 -0.16545534 320.41789562 -0.17345457 322.66283989 -0.18662262 C325.80713626 -0.20375568 328.95089021 -0.20178545 332.09521484 -0.1953125 C333.01341507 -0.20452728 333.9316153 -0.21374207 334.87763977 -0.22323608 C341.10916218 -0.18322968 348.12335752 0.27955867 353.0372076 4.54230881 C359.06570366 11.51612092 359.56860991 18.43757126 359.57370281 27.43168449 C359.57545585 28.13267499 359.57720889 28.83366549 359.57901505 29.55589813 C359.58365691 31.89844062 359.58121424 34.24092055 359.57878113 36.58346558 C359.58065001 38.28251099 359.58295102 39.98155598 359.58564645 41.68060029 C359.59176122 46.34486264 359.59163124 51.00910706 359.59045208 55.67337251 C359.59024799 60.70550961 359.59576754 65.73764097 359.60050964 70.76977539 C359.60881474 80.62649553 359.61156441 90.48320968 359.61212202 100.33993302 C359.6125972 108.35122742 359.61465205 116.36251985 359.61782265 124.37381363 C359.62662845 147.08592832 359.63124208 169.79803829 359.63049217 192.51015471 C359.63043224 194.34663448 359.63043224 194.34663448 359.63037109 196.22021484 C359.63033021 197.44602883 359.63028933 198.67184281 359.63024721 199.93480267 C359.62984065 219.80638802 359.63941289 239.67795443 359.65350946 259.54953431 C359.66786861 279.95217462 359.67477991 300.35480568 359.67391568 320.75745118 C359.67358358 332.21257523 359.67633666 343.66767942 359.68709373 355.12279892 C359.69619261 364.87459703 359.69837898 374.62636627 359.69158431 384.37816678 C359.68831616 389.35340526 359.68827312 394.32858833 359.69693756 399.30382156 C359.70479026 403.85978838 359.70338369 408.41565574 359.69465343 412.9716201 C359.69311575 414.61826309 359.6949447 416.26491347 359.7005135 417.91154777 C359.77175078 440.47292568 359.77175078 440.47292568 351.25756836 449.47363281 C344.97878288 453.2409041 336.4495221 452.31000586 329.31054688 452.30639648 C327.85500397 452.3114344 327.85500397 452.3114344 326.37005615 452.3165741 C323.18801567 452.32601061 320.00602818 452.32802332 316.82397461 452.32910156 C314.59634887 452.33231853 312.36872333 452.33568293 310.14109802 452.33918762 C305.48191844 452.34516014 300.82275736 452.34702939 296.16357422 452.34643555 C290.21112266 452.34633388 284.25879024 452.35999979 278.30636692 452.37720776 C273.70883139 452.38835631 269.11132444 452.3903539 264.51377678 452.38982582 C262.31987026 452.3910011 260.12596289 452.39539732 257.93206978 452.40315819 C254.8576242 452.41301859 251.78343458 452.41005652 248.70898438 452.40405273 C247.81465195 452.40967224 246.92031952 452.41529175 245.99888611 452.42108154 C231.08858434 452.34755308 231.08858434 452.34755308 226.49565983 448.54880047 C219.80856188 441.2166386 219.25684731 432.82556224 219.41430664 423.22900391 C219.43039829 421.65408704 219.44609685 420.07916612 219.4614563 418.50424194 C219.47099461 417.67873211 219.48053291 416.85322227 219.49036026 416.00269699 C219.54243356 410.657868 219.53613257 405.31269905 219.54171944 399.96765709 C219.5499238 395.29005879 219.57763023 390.61412834 219.6472168 385.93701172 C219.71372015 381.38943419 219.72557925 376.84449601 219.70196152 372.29652786 C219.70256686 370.57667957 219.72233186 368.85671442 219.76272964 367.13734055 C219.97134954 357.77989021 219.57226805 351.06468133 213.15551758 343.85498047 C211.29424249 341.90899316 209.37460026 340.04140043 207.44506836 338.16113281 C205.87935456 336.30616613 204.33330145 334.43415461 202.82006836 332.53613281 C202.09303711 331.64410156 201.36600586 330.75207031 200.61694336 329.83300781 C199.16902669 328.05175781 197.72111003 326.27050781 196.27319336 324.48925781 C192.25761793 319.56234611 188.19576998 314.68315541 184.07006836 309.84863281 C179.69042646 304.71356224 175.50587431 299.44935369 171.36621094 294.11987305 C168.17118708 290.02806082 164.81868974 286.13026242 161.32788086 282.28613281 C158.63988742 279.25238088 156.15375 276.0702743 153.64038086 272.89160156 C151.14706426 269.79048359 148.58612184 266.75387773 146.00756836 263.72363281 C141.94418054 258.94513308 137.93679638 254.12719549 133.97631836 249.26269531 C130.11214181 244.51884282 126.2112399 239.80502322 122.31689453 235.0859375 C121.74430908 234.39145508 121.17172363 233.69697266 120.58178711 232.98144531 C120.07349365 232.36543457 119.5652002 231.74942383 119.04150391 231.11474609 C117.15864759 228.81062983 115.30264027 226.48565957 113.44506836 224.16113281 C113.44175821 225.21266194 113.43844807 226.26419107 113.43503761 227.34758472 C113.35397965 252.95456837 113.26164461 278.56149253 113.15754128 304.16839314 C113.10745737 316.55178408 113.06101395 328.93516854 113.02319336 341.31860352 C112.99021285 352.11422827 112.95034817 362.90980211 112.9022783 373.7053706 C112.87707358 379.4194921 112.85527454 385.13358008 112.8417244 390.84774208 C112.82884932 396.23130472 112.80673647 401.61475207 112.77768517 406.99825096 C112.76865187 408.9690005 112.76292914 410.93976857 112.76085472 412.91053772 C112.72762927 439.69268462 112.72762927 439.69268462 107.44506836 447.16113281 C99.8188165 452.69390377 91.40931177 452.31092056 82.30053711 452.30639648 C81.31735504 452.3097551 80.33417297 452.31311371 79.32119751 452.3165741 C76.09164139 452.32602415 72.86213742 452.32802397 69.63256836 452.32910156 C67.37630187 452.33231741 65.12003559 452.33568173 62.86376953 452.33918762 C58.14314287 452.34516338 53.42253447 452.34702903 48.7019043 452.34643555 C42.66291042 452.34633382 36.62403382 452.36000445 30.58506775 452.37720776 C25.92842066 452.3883409 21.27180186 452.39035438 16.61514282 452.38982582 C14.38888137 452.39100324 12.16261913 452.39541161 9.93637085 452.40315819 C6.82069727 452.41298797 3.70527754 452.41006854 0.58959961 452.40405273 C-0.32284515 452.40967224 -1.23528992 452.41529175 -2.17538452 452.42108154 C-9.03450359 452.38753698 -14.95811544 451.8270149 -20.86743164 448.03613281 C-27.06518628 441.40597668 -27.67858433 432.80724522 -27.68356609 424.03203964 C-27.68531913 423.33419096 -27.68707217 422.63634227 -27.68887833 421.91734666 C-27.69352943 419.57946034 -27.69107512 417.24163645 -27.68864441 414.90374756 C-27.69051283 413.21040269 -27.69281366 411.51705825 -27.69550973 409.82371449 C-27.70163032 405.17052497 -27.70149383 400.51735341 -27.70031536 395.86416078 C-27.70011141 390.84562035 -27.7056295 385.82708571 -27.71037292 380.80854797 C-27.71868156 370.97608709 -27.72142787 361.1436322 -27.7219853 351.3111681 C-27.72246038 343.31892779 -27.72451472 335.32668946 -27.72768593 327.33444977 C-27.73649323 304.67683011 -27.74110521 282.01921519 -27.74035545 259.36159381 C-27.7403155 258.13995828 -27.74027554 256.91832276 -27.74023438 255.65966797 C-27.74019349 254.43654141 -27.74015261 253.21341485 -27.74011049 251.95322385 C-27.73970404 232.13074942 -27.74927311 212.30829398 -27.76337274 192.48582503 C-27.77773467 172.13406211 -27.78464302 151.78230845 -27.78377897 131.43054032 C-27.78344692 120.00387409 -27.78619716 108.57722777 -27.79695702 97.1505661 C-27.80605962 87.42146296 -27.80823925 77.69238876 -27.80144759 67.96328321 C-27.79818113 63.00007933 -27.79813029 58.03693098 -27.80680084 53.07373238 C-27.81466115 48.5275422 -27.81323916 43.98145163 -27.80451671 39.4352639 C-27.80298069 37.79328382 -27.80480172 36.15129633 -27.81037679 34.509325 C-27.88227323 11.82651004 -27.88227323 11.82651004 -21.18774414 4.53613281 C-15.3020222 -0.42026461 -7.34165387 0.03949146 0 0 Z " fill="#000000" transform="translate(1355.554931640625,743.8388671875)"/>
<path d="M0 0 C1.53088509 -0.00744736 1.53088509 -0.00744736 3.09269714 -0.01504517 C6.44730315 -0.02957396 9.80186193 -0.03645189 13.15649414 -0.04199219 C15.50004578 -0.0477496 17.84359741 -0.05350726 20.18714905 -0.05926514 C25.09189065 -0.06974753 29.99661598 -0.0756088 34.90136719 -0.07910156 C41.17347755 -0.08459209 47.44537148 -0.10864394 53.7174139 -0.13707352 C58.55510583 -0.1557287 63.3927458 -0.16090696 68.23047066 -0.16243744 C70.54243724 -0.16545603 72.85440308 -0.17345763 75.16633415 -0.18662262 C78.40402474 -0.20374932 81.64118827 -0.20178695 84.87890625 -0.1953125 C85.82515869 -0.20452728 86.77141113 -0.21374207 87.74633789 -0.22323608 C95.11172485 -0.17728732 101.65481728 0.79679257 107.44165039 5.59863281 C114.0703369 13.83427363 112.64529418 24.47652085 112.61767578 34.56347656 C112.61739333 36.012914 112.61755278 37.46235158 112.61811829 38.91178894 C112.618404 42.82649229 112.61254391 46.74116471 112.60554433 50.6558609 C112.59927306 54.75445904 112.59870401 58.85305796 112.59751892 62.95166016 C112.59441671 70.70395578 112.58621832 78.45623722 112.57616943 86.20852661 C112.56497378 95.03804642 112.55948915 103.86756691 112.554474 112.69709206 C112.54403474 130.85178056 112.5262543 149.00645502 112.50415039 167.16113281 C124.87915039 166.66613281 124.87915039 166.66613281 137.50415039 166.16113281 C151.14186819 135.56936996 151.14186819 135.56936996 164.62915039 104.91113281 C164.89921906 104.29257416 165.16928772 103.6740155 165.44754028 103.03671265 C166.56210387 100.48359258 167.67641592 97.93036291 168.79042053 95.3769989 C175.66404964 79.6248162 182.57183862 63.88757262 189.50415039 48.16113281 C189.83493591 47.41043518 190.16572144 46.65973755 190.50653076 45.8862915 C192.31106811 41.79299492 194.12121424 37.70227048 195.94064331 33.61557007 C196.72000449 31.86292107 197.49511039 30.10838171 198.27001953 28.35375977 C208.03182584 6.5103294 208.03182584 6.5103294 217.50415039 2.16113281 C224.74867751 0.22449322 232.00471024 -0.13297841 239.46411133 -0.11352539 C241.01510277 -0.12119179 241.01510277 -0.12119179 242.59742737 -0.12901306 C245.97785401 -0.14278991 249.35807422 -0.14196225 252.73852539 -0.13964844 C255.10500157 -0.14354002 257.47147706 -0.14787564 259.83795166 -0.15263367 C264.78025588 -0.16006882 269.7224886 -0.15982287 274.66479492 -0.15454102 C280.99196363 -0.14872963 287.31884121 -0.16573093 293.64596176 -0.18888569 C298.52561141 -0.20362224 303.40519075 -0.20449517 308.2848587 -0.20137596 C310.61800974 -0.20188854 312.95116478 -0.20711431 315.28429413 -0.21718788 C318.54364496 -0.22954226 321.80242569 -0.22276776 325.06176758 -0.21118164 C326.01984818 -0.21882538 326.97792877 -0.22646912 327.96504211 -0.23434448 C334.76989415 -0.18095611 339.66983437 0.7519642 345.00415039 5.28613281 C347.39655033 9.87156604 346.3054175 14.43570487 344.87524414 19.30029297 C344.06318237 21.53398339 343.17718985 23.72095546 342.25415039 25.91113281 C341.90698975 26.75691895 341.5598291 27.60270508 341.20214844 28.47412109 C337.52854983 37.31374234 333.57855907 46.03403741 329.63598633 54.75610352 C325.68227059 63.50468019 321.81045577 72.28493915 318.00415039 81.09863281 C317.73614624 81.71891357 317.46814209 82.33919434 317.1920166 82.97827148 C315.83506206 86.11959987 314.47946691 89.2615121 313.12475586 92.40380859 C310.44549912 98.6175155 307.75644007 104.82697975 305.06665039 111.03613281 C304.80312775 111.64459045 304.5396051 112.2530481 304.26809692 112.87994385 C299.84665766 123.08690319 295.40018362 133.28282597 290.94165039 143.47363281 C290.64574005 144.15012878 290.34982971 144.82662476 290.04495239 145.52362061 C286.8853636 152.74537999 283.71509226 159.96202842 280.50415039 167.16113281 C281.53411133 167.23589844 282.56407227 167.31066406 283.62524414 167.38769531 C306.17727146 169.34142036 325.03499378 178.36535304 339.8581543 195.74902344 C352.39409175 211.51737593 357.68141503 230.52733821 357.63786316 250.38926697 C357.64012872 251.16577608 357.64239427 251.9422852 357.64472848 252.74232489 C357.65100502 255.31675757 357.65024325 257.89113674 357.64941406 260.46557617 C357.65240946 262.32257657 357.65581286 264.17957635 357.65959167 266.03657532 C357.66839554 271.06135029 357.67076822 276.08610821 357.67140746 281.11089015 C357.67211983 284.25400325 357.67425764 287.39711205 357.67690468 290.54022408 C357.68614497 301.51599527 357.69024107 312.49175434 357.68945312 323.4675293 C357.68885215 333.6825537 357.6994112 343.89752532 357.71519679 354.11253637 C357.72828784 362.89836656 357.73363639 371.68417953 357.73299772 380.4700194 C357.73274326 385.7105966 357.73556567 390.95112682 357.74617577 396.19169426 C357.75588351 401.12063301 357.7559176 406.04948011 357.74865913 410.97842216 C357.74761674 412.7819075 357.7499556 414.58539862 357.75601959 416.38887405 C357.83258743 440.74782086 357.83258743 440.74782086 351.50415039 448.16113281 C345.03762854 453.51910806 334.92686517 452.31024494 326.97070312 452.30639648 C325.45181992 452.3114344 325.45181992 452.3114344 323.9022522 452.3165741 C320.58073678 452.32601366 317.2592721 452.32802334 313.93774414 452.32910156 C311.61564616 452.33231783 309.29354837 452.33568218 306.97145081 452.33918762 C302.11556529 452.34516053 297.25969752 452.3470293 292.40380859 452.34643555 C286.1910894 452.34633376 279.97848407 452.36001146 273.76579189 452.37720776 C268.97446675 452.38833841 264.1831691 452.39035446 259.39183235 452.38982582 C257.10137602 452.39100334 254.81091892 452.39541229 252.52047539 452.40315819 C249.3163037 452.41298418 246.11237901 452.41007016 242.90820312 452.40405273 C241.49981422 452.41248199 241.49981422 452.41248199 240.06297302 452.42108154 C233.47906863 452.38975218 227.46545558 451.93791592 221.69165039 448.47363281 C214.20227758 440.55629584 215.35559863 428.79048552 215.34643555 418.64575195 C215.34135483 417.41058334 215.33627411 416.17541473 215.33103943 414.90281677 C215.32036976 412.23029747 215.31135932 409.55782889 215.3049202 406.88530159 C215.29416782 402.65212573 215.27390571 398.41902773 215.25180054 394.18589783 C215.19011347 382.15334636 215.13587872 370.12080151 215.1027832 358.08813477 C215.08439526 351.43160801 215.0554136 344.77521396 215.01477849 338.11878484 C214.99379079 334.60357615 214.97826286 331.08853399 214.97597122 327.57325935 C214.97341051 323.65067018 214.94788001 319.72840744 214.9206543 315.8059082 C214.92366043 314.65393951 214.92666656 313.50197083 214.92976379 312.31509399 C214.84902526 304.47033579 213.74748717 298.06620054 209.81665039 291.22363281 C204.66580899 286.62963913 197.19114962 286.86040213 190.60961914 286.84228516 C189.75989029 286.83223953 188.91016144 286.82219391 188.03468323 286.81184387 C185.25367855 286.78119707 182.4727693 286.76402863 179.69165039 286.74707031 C177.75251454 286.72834375 175.81338671 286.70876924 173.87426758 286.68838501 C168.7912063 286.63721502 163.70811865 286.59750856 158.62493896 286.5602417 C153.42966264 286.52010687 148.2344946 286.4690579 143.03930664 286.41894531 C132.86099746 286.32236534 122.68262692 286.23790352 112.50415039 286.16113281 C112.50599398 286.9043598 112.50783756 287.64758678 112.50973701 288.4133358 C112.55397075 306.52591983 112.58703354 324.63849303 112.60777473 342.75111961 C112.61807248 351.51036905 112.63210403 360.26958235 112.6550293 369.02880859 C112.67500922 376.66635146 112.68787773 384.30386814 112.69232738 391.94143641 C112.69492698 395.98273309 112.7010057 400.0239549 112.7156105 404.06522751 C112.72926726 407.87532775 112.7333568 411.68532286 112.73036575 415.49544525 C112.73091232 416.8877253 112.7348413 418.28000916 112.74256134 419.67226791 C112.85752367 441.49009087 112.85752367 441.49009087 106.50415039 448.16113281 C99.6491015 451.89041847 93.28679114 452.73701163 85.59765625 452.64697266 C84.03707237 452.65266769 84.03707237 452.65266769 82.44496155 452.65847778 C79.03599035 452.66583412 75.62788845 452.64457046 72.21899414 452.62207031 C69.8334615 452.61968299 67.44792696 452.61878117 65.06239319 452.61929321 C60.07532898 452.61617366 55.08855397 452.59967232 50.1015625 452.57275391 C43.72415117 452.53875733 37.34705673 452.53112648 30.96956539 452.53264427 C26.04778546 452.53209924 21.12607414 452.52111103 16.20431709 452.50664139 C13.85329265 452.50029895 11.50226048 452.4963405 9.15122795 452.49485397 C5.86110189 452.49049482 2.57130476 452.47293808 -0.71875 452.45166016 C-2.16146774 452.45301971 -2.16146774 452.45301971 -3.6333313 452.45440674 C-10.56447188 452.38919693 -18.11987994 452.28758283 -23.87084961 447.97363281 C-30.01554404 441.39003163 -30.61959462 433.65107535 -30.62448406 425.01362896 C-30.6262371 424.3137923 -30.62799014 423.61395565 -30.6297963 422.89291182 C-30.63444755 420.54827284 -30.63199305 418.20369611 -30.62956238 415.85905457 C-30.63143079 414.1608722 -30.63373161 412.46269027 -30.6364277 410.76450902 C-30.64254836 406.09798732 -30.64241179 401.43148354 -30.64123333 396.76495874 C-30.64102939 391.73212239 -30.64654742 386.6992918 -30.65129089 381.66645813 C-30.65959942 371.80625878 -30.66234582 361.9460654 -30.66290327 352.08586284 C-30.66337833 344.07168411 -30.66543255 336.05750735 -30.6686039 328.04332924 C-30.67741095 305.32530639 -30.68202318 282.60728828 -30.68127342 259.88926371 C-30.68123347 258.66437846 -30.68119351 257.43949322 -30.68115234 256.17749023 C-30.68111146 254.95111075 -30.68107058 253.72473127 -30.68102846 252.46118877 C-30.68062196 232.58307332 -30.69019253 212.7049768 -30.70429071 192.82686683 C-30.71864997 172.41973813 -30.72556115 152.01261867 -30.72469693 131.60548478 C-30.72436481 120.14699238 -30.72711852 108.68851983 -30.73787498 97.23003197 C-30.74697405 87.47454984 -30.74916011 77.71909657 -30.74236556 67.96361204 C-30.73909739 62.98635526 -30.73905443 58.00915385 -30.74771881 53.03190231 C-30.75557152 48.47404519 -30.75416493 43.91628747 -30.74543468 39.35843281 C-30.74389699 37.71108698 -30.74572598 36.06373377 -30.75129475 34.41639664 C-30.81978772 12.71472556 -30.81978772 12.71472556 -24.49584961 5.16113281 C-17.42977992 -0.78078943 -8.77396743 0.01034303 0 0 Z " fill="#000000" transform="translate(73.495849609375,743.8388671875)"/>
<path d="M0 0 C1.0219043 -0.00175232 2.04380859 -0.00350464 3.09667969 -0.00531006 C6.46697703 -0.00970279 9.83722167 -0.0067992 13.20751953 -0.00341797 C15.55632538 -0.00409185 17.90513116 -0.00506258 20.25393677 -0.00631714 C25.17483179 -0.00779071 30.09570865 -0.00565087 35.01660156 -0.00097656 C41.31344999 0.00471422 47.61025573 0.00144366 53.90710258 -0.00454903 C58.75762247 -0.00816918 63.6081323 -0.00700925 68.4586525 -0.00442123 C70.77980682 -0.00375567 73.10096208 -0.00456743 75.42211533 -0.00690079 C78.67205966 -0.00945047 81.92193572 -0.00555381 85.171875 0 C86.60135971 -0.00303635 86.60135971 -0.00303635 88.0597229 -0.00613403 C104.5500356 0.04586596 104.5500356 0.04586596 110.71533203 6.12939453 C114.26170554 11.68537969 114.84095765 17.30659439 114.83837986 23.78715324 C114.84037091 24.89636914 114.84236196 26.00558504 114.84441334 27.14841354 C114.8415005 28.3565852 114.83858766 29.56475687 114.83558655 30.80953979 C114.83686819 32.74670811 114.83686819 32.74670811 114.83817571 34.72301114 C114.84040904 38.30096204 114.83641529 41.87888294 114.83139765 45.45683002 C114.82707666 49.31770132 114.82854075 53.17857094 114.82929993 57.03944397 C114.82982411 63.72646358 114.82668828 70.41347342 114.82106209 77.10049057 C114.81293287 86.76877845 114.81033041 96.43706161 114.8090741 106.10535254 C114.80688582 121.79175463 114.80023179 137.47815151 114.79077148 153.16455078 C114.78159158 168.4018552 114.77451357 183.63915821 114.77026367 198.87646484 C114.77000095 199.81579211 114.76973822 200.75511938 114.76946754 201.7229111 C114.7681625 206.43526973 114.76689879 211.14762837 114.76565564 215.85998702 C114.75528999 254.94979414 114.73685543 294.03959165 114.71533203 333.12939453 C143.09533203 333.12939453 171.47533203 333.12939453 200.71533203 333.12939453 C200.69212891 325.65412109 200.66892578 318.17884766 200.64501953 310.47705078 C200.63479689 305.73290667 200.62516867 300.9887762 200.61767578 296.24462891 C200.6057341 288.71945362 200.59162764 281.19432715 200.56445312 273.66918945 C200.54267509 267.60025435 200.5307529 261.53137161 200.52557755 255.46240044 C200.52189071 253.15043756 200.51469127 250.83847745 200.50387192 248.52653694 C200.48929122 245.28089393 200.48735686 242.03546557 200.48828125 238.78979492 C200.4810907 237.84032486 200.47390015 236.8908548 200.4664917 235.91261292 C200.4922897 227.50643456 201.15702103 219.79936773 206.71533203 213.12939453 C212.82644344 208.58523476 219.31411023 208.98058491 226.61108398 208.98413086 C228.09983032 208.97909294 228.09983032 208.97909294 229.61865234 208.97395325 C232.89698542 208.96446097 236.17526732 208.96250095 239.45361328 208.96142578 C241.73658774 208.95821185 244.01956199 208.95484767 246.30253601 208.95133972 C251.08817014 208.94535265 255.87378622 208.94349937 260.65942383 208.9440918 C266.78257866 208.94419336 272.90561737 208.93054535 279.0287447 208.91331959 C283.74458851 208.90218415 288.46040439 208.90017307 293.17625999 208.90070152 C295.43322334 208.89952358 297.69018746 208.89511223 299.94713783 208.88736916 C303.10863935 208.87753889 306.26989068 208.88045947 309.43139648 208.88647461 C310.82115944 208.87804535 310.82115944 208.87804535 312.23899841 208.8694458 C319.13529243 208.90267816 325.08522064 209.44215326 331.02783203 213.25439453 C336.45508522 219.06029329 337.16052734 225.44242831 337.09628296 233.04124451 C337.10096293 233.90335936 337.1056429 234.76547422 337.11046469 235.65371376 C337.12236908 238.52394068 337.11297531 241.3936861 337.10351562 244.26391602 C337.10758338 246.32928749 337.1129264 248.39465678 337.1194458 250.46002197 C337.13310175 256.05713592 337.12782756 261.65408365 337.11830854 267.25120044 C337.11070206 273.11531182 337.1177604 278.97940917 337.12246704 284.84352112 C337.12792213 294.69152373 337.12073986 304.53945881 337.10644531 314.38745117 C337.09012385 325.76300772 337.0954047 337.13840291 337.11192453 348.51395553 C337.12555179 358.28998678 337.12745284 368.06596954 337.11960852 377.84200722 C337.11493826 383.6767005 337.11428931 389.51131802 337.12421799 395.34600639 C337.13290321 400.83310345 337.12683716 406.31999314 337.10953522 411.80706787 C337.10557851 413.81737486 337.10669039 415.8276994 337.11332321 417.83799934 C337.12156121 420.58908645 337.11118998 423.33951536 337.09628296 426.09056091 C337.10297512 426.87987847 337.10966729 427.66919603 337.11656225 428.48243231 C337.0442738 435.3939507 335.75615327 441.66994329 331.27783203 447.06689453 C323.46942444 453.3517104 314.1543595 452.27507172 304.56462097 452.2631073 C303.22102094 452.26497706 301.87742146 452.26727843 300.53382283 452.26997262 C296.85202511 452.27607655 293.17025013 452.27595869 289.4884485 452.27477825 C285.51356112 452.27457389 281.53868099 452.28009637 277.563797 452.28483582 C269.78020987 452.29313512 261.99663031 452.29589033 254.21303912 452.29644819 C247.88510576 452.29692368 241.5571749 452.29898005 235.22924232 452.30214882 C217.28122047 452.3109533 199.33320459 452.3155685 181.38518056 452.31481835 C180.41800505 452.31477839 179.45082955 452.31473843 178.4543457 452.31469727 C177.4859869 452.31465638 176.5176281 452.3146155 175.5199251 452.31457338 C159.82638923 452.31416693 144.13287735 452.32373676 128.43934842 452.33783563 C112.31831991 452.35220409 96.1973031 452.35910556 80.07626802 452.35824186 C71.02835057 452.35791006 61.98045829 452.36064968 52.93254662 452.37141991 C45.22915374 452.38053106 37.52579742 452.38269508 29.82240149 452.37591048 C25.89409649 452.37264844 21.96586162 452.37257719 18.03756332 452.38126373 C14.4369703 452.38914357 10.83650285 452.38768223 7.23591284 452.3789796 C5.32592008 452.37672582 3.41592337 452.38426159 1.50594586 452.39221925 C-15.8568982 452.32285726 -15.8568982 452.32285726 -21.72216797 447.94189453 C-27.77570237 441.29777141 -28.40841181 433.6204225 -28.41330242 424.98468399 C-28.41505546 424.28514693 -28.4168085 423.58560987 -28.41861466 422.86487472 C-28.4232659 420.52124505 -28.42081141 418.17767765 -28.41838074 415.83404541 C-28.42024915 414.13657574 -28.42254998 412.4391065 -28.42524606 410.74163795 C-28.43136674 406.07704686 -28.43123015 401.41247369 -28.43005168 396.74787951 C-28.42984774 391.71706904 -28.43536581 386.68626433 -28.44010925 381.65545654 C-28.44841793 371.79893219 -28.4511642 361.94241383 -28.45172163 352.08588627 C-28.45219671 344.07409981 -28.45425103 336.06231532 -28.45742226 328.05052948 C-28.46622957 305.3375723 -28.47084153 282.62461984 -28.47009178 259.91166094 C-28.47005183 258.68703842 -28.47001187 257.46241589 -28.4699707 256.20068359 C-28.46992982 254.97456642 -28.46988894 253.74844925 -28.46984682 252.48517701 C-28.46944037 232.61420364 -28.47900945 212.74324923 -28.49310907 192.87228134 C-28.50747094 172.47079787 -28.51437935 152.06932365 -28.51351529 131.667835 C-28.51318325 120.21322311 -28.51593358 108.75863108 -28.52669334 97.30402374 C-28.53579586 87.55113205 -28.53797564 77.79826923 -28.53118392 68.04537514 C-28.52791742 63.07001971 -28.52786677 58.09471968 -28.53653717 53.11936951 C-28.5443973 48.56207688 -28.54297567 44.00488361 -28.53425304 39.44759342 C-28.53271698 37.80157569 -28.5345382 36.15555055 -28.54011311 34.50954154 C-28.61193275 11.79468812 -28.61193275 11.79468812 -21.91748047 4.50439453 C-15.70410955 -0.72791782 -7.67515273 -0.01623371 0 0 Z " fill="#000000" transform="translate(920.28466796875,743.87060546875)"/>
<path d="M0 0 C0.96868883 -0.00322445 1.93737766 -0.00644889 2.93542069 -0.00977105 C3.99182797 -0.00822245 5.04823524 -0.00667385 6.13665485 -0.00507832 C7.26501532 -0.00734387 8.39337579 -0.00960943 9.55592901 -0.01194364 C13.34508043 -0.01828466 17.13419609 -0.0174542 20.92335224 -0.01662922 C23.63689529 -0.01907689 26.35043581 -0.02299482 29.06397724 -0.02680683 C35.67541309 -0.03511132 42.28684002 -0.0378616 48.89828064 -0.03841921 C54.27422145 -0.03889456 59.65015932 -0.04095029 65.02609921 -0.04411983 C80.27439869 -0.05292666 95.52269115 -0.05753929 110.7709932 -0.05678936 C111.59293672 -0.0567494 112.41488024 -0.05670945 113.26173115 -0.05666828 C114.49615567 -0.05660696 114.49615567 -0.05660696 115.75551806 -0.0565444 C129.08566749 -0.05613815 142.41578866 -0.06570226 155.74592992 -0.07980665 C169.43962878 -0.09418111 183.13331387 -0.10107621 196.82702047 -0.10021287 C204.51233827 -0.09988122 212.19762644 -0.10261415 219.88293743 -0.11339092 C226.42806033 -0.12251011 232.97314019 -0.12465962 239.5182667 -0.1178815 C242.85520327 -0.11462313 246.19199014 -0.11562801 249.52892971 -0.12323475 C253.15329041 -0.13096053 256.77743546 -0.1263057 260.40179157 -0.11860371 C261.96967207 -0.12631905 261.96967207 -0.12631905 263.56922692 -0.13419026 C270.91631383 -0.09977363 278.63191605 -0.00302984 285.02418232 3.94113445 C290.95988428 10.23657593 291.23527209 16.27687956 291.26368427 24.615695 C291.27025547 25.45867641 291.27682667 26.30165783 291.28359699 27.17018414 C291.30325962 29.95190818 291.3149775 32.73357839 291.32496357 35.5153532 C291.3290391 36.46915182 291.33311462 37.42295044 291.33731365 38.40565205 C291.35814541 43.45515632 291.37245908 48.50463366 291.38184834 53.55417156 C291.39290072 58.75132667 291.42729557 63.94805223 291.46702003 69.14505577 C291.49325009 73.15755758 291.50154588 77.16995804 291.50512981 81.18253803 C291.50998001 83.09736116 291.52154894 85.01218024 291.54016781 86.92691898 C291.73681823 108.49210608 291.73681823 108.49210608 285.02418232 116.62863445 C266.02781725 131.33549774 213.88727245 121.12863445 208.08668232 121.12863445 C208.08668232 190.75863445 208.08668232 260.38863445 208.08668232 332.12863445 C229.20668232 332.12863445 250.32668232 332.12863445 272.08668232 332.12863445 C283.71933538 334.45516507 283.71933538 334.45516507 287.08668232 338.12863445 C291.17118022 344.69300608 291.23671601 351.65829192 291.23194599 359.20016766 C291.23698391 360.36266537 291.23698391 360.36266537 291.2421236 361.54864788 C291.25156587 364.09225379 291.25357334 366.63579339 291.25465107 369.1794157 C291.25786839 370.96149503 291.26123282 372.7435741 291.26473713 374.52565289 C291.27071164 378.25521742 291.27257876 381.98475883 291.27198505 385.71432781 C291.27188354 390.47186025 291.28553174 395.22924308 291.30275726 399.98674011 C291.31392577 403.66639659 291.31590277 407.34601744 291.31537533 411.02568913 C291.31654829 412.77860498 291.32093128 414.53152197 291.3287077 416.28442097 C291.42688925 440.7015349 291.42688925 440.7015349 285.08668232 448.12863445 C280.41966927 451.59897749 275.88055842 452.25244923 270.17336464 452.25726891 C269.20467581 452.26049335 268.23598698 452.2637178 267.23794395 452.26703995 C266.18153667 452.26549135 265.1251294 452.26394275 264.03670979 452.26234722 C262.34416908 452.26574556 262.34416908 452.26574556 260.61743563 452.26921254 C256.82828421 452.27555356 253.03916855 452.2747231 249.2500124 452.27389812 C246.53646935 452.27634579 243.82292883 452.28026372 241.1093874 452.28407574 C234.49795155 452.29238023 227.88652462 452.29513051 221.275084 452.29568812 C215.89914319 452.29616347 210.52320531 452.29821919 205.14726543 452.30138874 C189.89896595 452.31019557 174.65067349 452.31480819 159.40237144 452.31405827 C158.58042792 452.31401831 157.7584844 452.31397835 156.91163349 452.31393719 C156.08868381 452.31389631 155.26573413 452.31385543 154.41784658 452.31381331 C141.08769714 452.31340706 127.75757598 452.32297116 114.42743472 452.33707555 C100.73373586 452.35145001 87.04005077 452.35834512 73.34634417 452.35748178 C65.66102637 452.35715013 57.9757382 452.35988306 50.29042721 452.37065983 C43.74530431 452.37977901 37.20022445 452.38192853 30.65509794 452.3751504 C27.31816137 452.37189203 23.9813745 452.37289692 20.64443493 452.38050365 C17.02007423 452.38822944 13.39592918 452.38357461 9.77157307 452.37587261 C8.7263194 452.38101618 7.68106574 452.38615974 6.60413772 452.39145917 C-11.04246842 452.30879556 -11.04246842 452.30879556 -16.91331768 447.12863445 C-23.79075306 437.21015621 -22.07617856 424.04175538 -22.08128643 412.50363445 C-22.08450544 410.78927871 -22.08786998 409.07492323 -22.09137249 407.36056805 C-22.09733561 403.77999516 -22.09921518 400.19944632 -22.09862041 396.61886883 C-22.09851869 392.04962156 -22.11219468 387.4805293 -22.12939262 382.91131878 C-22.14055184 379.37496524 -22.14253846 375.83864881 -22.14201069 372.30227947 C-22.14318397 370.61831406 -22.14756881 368.93434747 -22.15534306 367.25039959 C-22.25262217 344.01411077 -22.25262217 344.01411077 -15.91331768 336.12863445 C8.86627848 327.11787221 36.71961532 332.12863445 63.08668232 332.12863445 C63.08668232 262.49863445 63.08668232 192.86863445 63.08668232 121.12863445 C39.98668232 121.12863445 16.88668232 121.12863445 -6.91331768 121.12863445 C-16.91331768 116.12863445 -16.91331768 116.12863445 -20.10081768 109.75363445 C-21.88810174 103.9793321 -22.05981097 98.11729315 -22.04271221 92.11715984 C-22.04446453 91.34870235 -22.04621685 90.58024487 -22.04802227 89.78850079 C-22.05239564 87.26774059 -22.04951848 84.74705152 -22.04613018 82.2262907 C-22.04680459 80.46184049 -22.04777575 78.69739038 -22.04902935 76.93294048 C-22.05050027 73.24205926 -22.04837151 69.5512023 -22.04368877 65.86032391 C-22.03799606 61.14523444 -22.04127145 56.43020196 -22.04726124 51.71511459 C-22.05088679 48.07328651 -22.04971904 44.43147179 -22.04713345 40.78964329 C-22.04646947 39.05182609 -22.04727396 37.31400765 -22.049613 35.5761919 C-22.05217189 33.1405968 -22.04825347 30.70509202 -22.04271221 28.26950359 C-22.04473644 27.56120403 -22.04676067 26.85290447 -22.04884624 26.12314129 C-22.01377682 17.74061027 -21.54790004 10.68469006 -15.91331768 4.12863445 C-10.87328864 0.8736157 -5.92134004 0.00500052 0 0 Z " fill="#000000" transform="translate(523.9133176803589,743.8713655471802)"/>
<path d="M0 0 C1.18177826 -0.00571014 2.36355652 -0.01142029 3.58114624 -0.01730347 C4.87422195 -0.01842133 6.16729767 -0.01953918 7.4995575 -0.02069092 C8.87793612 -0.02532131 10.25631347 -0.03034627 11.63468933 -0.03573608 C15.3765382 -0.04884051 19.11836914 -0.05530118 22.86023736 -0.05974674 C25.19942162 -0.06268055 27.53860102 -0.06678593 29.87778282 -0.07125092 C37.20071525 -0.08492051 44.52363651 -0.09458988 51.8465808 -0.09845281 C60.29218684 -0.10293279 68.73763097 -0.1204801 77.18318778 -0.1494534 C83.71666046 -0.17108709 90.25008764 -0.18115798 96.78359574 -0.18249393 C100.68336255 -0.18354072 104.58297705 -0.18942172 108.48270607 -0.20731354 C112.15255042 -0.22382357 115.82212845 -0.22593566 119.49199677 -0.21717453 C121.47422729 -0.21604026 123.4564491 -0.22973484 125.43862915 -0.243927 C133.38438251 -0.20674862 138.72383834 0.20622232 144.96318054 5.45294189 C150.19806077 11.7057155 151.32893325 17.86125984 151.35362244 25.83714294 C151.35933258 26.94857666 151.36504272 28.06001038 151.3709259 29.2051239 C151.37260269 31.01231651 151.37260269 31.01231651 151.37431335 32.85601807 C151.37927826 34.13644989 151.38424316 35.41688171 151.38935852 36.7361145 C151.40242913 40.23845172 151.40891717 43.74076981 151.41336918 47.24312758 C151.41630895 49.43595047 151.42041546 51.62876823 151.42487335 53.82158852 C151.4385351 60.69601611 151.44820785 67.57043186 151.45207524 74.44487208 C151.45655091 82.35499808 151.47408145 90.26495085 151.50307584 98.17502421 C151.52476162 104.30605548 151.53478321 110.43703825 151.53611636 116.56810743 C151.5371596 120.22205459 151.54296372 123.87583864 151.56093597 127.5297451 C151.5806285 131.61256631 151.57610036 135.69502942 151.56962585 139.77789307 C151.57884064 140.97256699 151.58805542 142.16724091 151.59754944 143.39811707 C151.55536948 151.92274022 150.97127935 162.31602849 145.21318054 169.14044189 C137.21136863 174.35092407 127.1089629 173.28908155 117.9316864 173.28570557 C116.61527664 173.28906418 115.29886688 173.29242279 113.94256592 173.29588318 C110.35177037 173.3046699 106.76099869 173.30705894 103.17019343 173.30769897 C100.92345291 173.3084121 98.67671836 173.3105513 96.42997932 173.31319618 C88.58288821 173.32242947 80.73581402 173.32653329 72.88871765 173.32574463 C65.58710863 173.32514324 58.28557334 173.3357122 50.98398298 173.35148829 C44.70095821 173.36457747 38.41795752 173.369928 32.13491923 173.36928922 C28.38839115 173.36903479 24.64192878 173.37185598 20.89541435 173.38246727 C16.71865179 173.39397626 12.54205422 173.38939302 8.36528015 173.38336182 C7.131315 173.38898132 5.89734985 173.39460083 4.62599182 173.40039062 C-4.63180688 173.36639886 -10.99545626 172.77386642 -17.78681946 166.14044189 C-20.95857853 161.45832135 -20.9110551 155.57172895 -20.9407196 150.08187866 C-20.94932007 148.89038208 -20.95792053 147.6988855 -20.96678162 146.47128296 C-20.97104156 145.1776181 -20.97530151 143.88395325 -20.97969055 142.55108643 C-20.9876009 141.16418253 -20.99587041 139.77728065 -21.00447083 138.39038086 C-21.03057165 133.85135838 -21.04598122 129.31232719 -21.06025696 124.77325439 C-21.06562056 123.2064501 -21.07099808 121.63964585 -21.07638931 120.07284164 C-21.09799581 113.55478525 -21.11673223 107.03673123 -21.1280117 100.51864815 C-21.14425483 91.19615618 -21.17746667 81.87408059 -21.23441255 72.55174553 C-21.27315168 65.98509952 -21.29264876 59.41856473 -21.29793227 52.85180748 C-21.30157878 48.93458574 -21.3135259 45.01780934 -21.346035 41.10071182 C-21.37618824 37.41511854 -21.38240228 33.73023848 -21.37065125 30.04454803 C-21.37032664 28.05651657 -21.39474079 26.06852861 -21.42002869 24.08065796 C-21.36240229 15.78748016 -20.11710805 10.56695585 -14.2732296 4.59321785 C-9.63222109 0.42752588 -6.04484641 0.01750859 0 0 Z " fill="#000000" transform="translate(1814.7868194580078,1022.8595581054688)"/>
</svg>